<svg xmlns="http://www.w3.org/2000/svg" width="464.165" height="242.474"><path d="M442.266 11.443c-1.272-.061-2.668.405-3.97.453-9.106 1.924-26.135 4.475-34.532 5.944-81.744-.583-159.23-1.132-242.067-2.04l-3.988 3.868h-7.775l-1.862 4.639h-5.22c-.945 2.497-4.029 6.318-9.102 6.373-3.195.033-4.64-1.383-7.438-3.52-8.118-6.2-16.577-8.2-20.968-4.959-2.687 1.983-1.17 3.178 6.86 5.404 7.563 2.098 13.618 11.09 17.464 17.338-8.468 11.437-26.807 12.562-42.123 15.98-4.491 1.26-5.221 1.872-7.266 6.114-22.047 39.292-59.215 85.426-70.564 146.096 14.868 10.512 64.092 20.343 80.748 16.228.606-11.7 3.593-14.344 8.902-22.486-4.228-7.06-3.649-22.668 4.16-29.326-10.731-31.276 10.79-36.095 34.508-47.897l2.485-6.718c1.108 3.588 1.027 5.204 1.433 8.2 5 32.982 66.377 35.312 73.854-4.341 1.914-15.248 4.21-16.938 23.015-16.938h12.244l9.846-38.103 187.871-.988c2.614-12.047 4.12-17.741 5.487-30.625 0-5.541-2.219-10.678-3.15-12.498h-2.665v-5.473h-1.058V20.52h-.82c-.414-7.407-2.19-8.974-4.31-9.077zm-278.967 10.33h70.267v64.33H163.3v-64.33zm117.22.061h30.106v2.539H280.52v-2.539zm62.61 0h30.105v2.539H343.13v-2.539zm62.611 0h30.106v2.539H405.74v-2.539zm-238.482 4.887v54.433h61.361V26.721h-61.361zM90.494 88.705a12.092 12.092 0 0 1 12.092 12.092 12.092 12.092 0 0 1-12.092 12.092 12.092 12.092 0 0 1-12.092-12.092 12.092 12.092 0 0 1 12.092-12.092zm97.547 18.613c6.343.32 11.542.34 15.389 2.534 5.002 2.851 7.864 10.159 5.175 25.127-8.46 22.37-70.2 26.243-60.818-15.032 2.673-5.952 5.009-9.133 9.254-9.857 4.09 2.619 7.844 5.224 12.691 5.53-.657 14.434.829 33.751 23.258 29.243-17.056-5.254-22.4-13.946-13.178-27.267 2.11-3.048 8.514-3.746 8.229-10.278zM61.406 137.455a7.216 7.216 0 0 1 7.217 7.217 7.216 7.216 0 0 1-7.217 7.215 7.216 7.216 0 0 1-7.215-7.215 7.216 7.216 0 0 1 7.215-7.217z" fill="#312e2f"/><circle cx="61.407" cy="144.671" r="2.959" fill="#312e2f"/><circle cx="90.494" cy="100.797" r="9.768" fill="#312e2f"/></svg>