<?xml version="1.0" encoding="UTF-8" standalone="no"?>
<!-- Generator: Adobe Illustrator 16.0.0, SVG Export Plug-In . SVG Version: 6.00 Build 0)  -->

<svg
   xmlns:dc="http://purl.org/dc/elements/1.1/"
   xmlns:cc="http://creativecommons.org/ns#"
   xmlns:rdf="http://www.w3.org/1999/02/22-rdf-syntax-ns#"
   xmlns:svg="http://www.w3.org/2000/svg"
   xmlns="http://www.w3.org/2000/svg"
   xmlns:sodipodi="http://sodipodi.sourceforge.net/DTD/sodipodi-0.dtd"
   xmlns:inkscape="http://www.inkscape.org/namespaces/inkscape"
   version="1.1"
   id="Layer_1"
   x="0px"
   y="0px"
   width="512px"
   height="512px"
   viewBox="0 0 512 512"
   enable-background="new 0 0 512 512"
   xml:space="preserve"
   sodipodi:docname="link_white.svg"
   inkscape:version="0.92.0 r"><metadata
     id="metadata9"><rdf:RDF><cc:Work
         rdf:about=""><dc:format>image/svg+xml</dc:format><dc:type
           rdf:resource="http://purl.org/dc/dcmitype/StillImage" /><dc:title></dc:title></cc:Work></rdf:RDF></metadata><defs
     id="defs7" /><sodipodi:namedview
     pagecolor="#ffffff"
     bordercolor="#666666"
     borderopacity="1"
     objecttolerance="10"
     gridtolerance="10"
     guidetolerance="10"
     inkscape:pageopacity="0"
     inkscape:pageshadow="2"
     inkscape:window-width="2560"
     inkscape:window-height="1387"
     id="namedview5"
     showgrid="false"
     inkscape:zoom="0.4609375"
     inkscape:cx="2.1694915"
     inkscape:cy="256"
     inkscape:window-x="1920"
     inkscape:window-y="30"
     inkscape:window-maximized="1"
     inkscape:current-layer="Layer_1" /><path
     fill="#010101"
     d="M459.654,233.373l-90.531,90.5c-49.969,50-131.031,50-181,0c-7.875-7.844-14.031-16.688-19.438-25.813  l42.063-42.063c2-2.016,4.469-3.172,6.828-4.531c2.906,9.938,7.984,19.344,15.797,27.156c24.953,24.969,65.563,24.938,90.5,0  l90.5-90.5c24.969-24.969,24.969-65.563,0-90.516c-24.938-24.953-65.531-24.953-90.5,0l-32.188,32.219  c-26.109-10.172-54.25-12.906-81.641-8.891l68.578-68.578c50-49.984,131.031-49.984,181.031,0  C509.623,102.342,509.623,183.389,459.654,233.373z M220.326,382.186l-32.203,32.219c-24.953,24.938-65.563,24.938-90.516,0  c-24.953-24.969-24.953-65.563,0-90.531l90.516-90.5c24.969-24.969,65.547-24.969,90.5,0c7.797,7.797,12.875,17.203,15.813,27.125  c2.375-1.375,4.813-2.5,6.813-4.5l42.063-42.047c-5.375-9.156-11.563-17.969-19.438-25.828c-49.969-49.984-131.031-49.984-181.016,0  l-90.5,90.5c-49.984,50-49.984,131.031,0,181.031c49.984,49.969,131.031,49.969,181.016,0l68.594-68.594  C274.561,395.092,246.42,392.342,220.326,382.186z"
     id="path2"
     style="fill:#ffffff;fill-opacity:1" /></svg>