<svg xmlns="http://www.w3.org/2000/svg" xmlns:xlink="http://www.w3.org/1999/xlink" width="370" height="370"><defs><linearGradient id="a"><stop offset="0" stop-color="#ed2323"/><stop offset="1" stop-color="#a90c0c"/></linearGradient><linearGradient xlink:href="#a" id="b" x1="175.106" y1="9.819" x2="175.106" y2="304.583" gradientUnits="userSpaceOnUse" gradientTransform="translate(0 26.478)"/></defs><path d="M118.666 96.542h43.581c15.314 44.688 33.953 86.053 49.266 130.743 8.193-1.912 15.589-4.622 22.737-7.58 4.533 6.836 5.214 17.525 9.475 24.634-15.107 7.315-33.225 11.62-51.16 16.106-8.843-27.16-20.003-52.001-29.37-78.636-16.864 22.928-30.968 48.614-47.371 72.003H83.612c-.297-4.498 3.277-9.268 5.685-13.264 18.61-30.885 40.048-65.68 58.74-97.583-1.638-7.837-5.489-13.46-7.58-20.843h-21.79v-25.58zm30.318-59.686c28.292-2.092 60.246-.947 92.846-.947 29.215 0 67.794-4.206 88.109 3.79 18.095 7.122 32.394 22.523 29.37 49.265-1.518 13.418-10.561 27.648-15.159 38.844-15.217 37.058-32.812 79.412-47.37 114.636-22.42 54.242-73.281 97.02-149.691 91.9-41.429-2.78-74.371-23.248-96.636-46.424C27.049 263.557 9.715 230.21 9.715 185.6c0-42.795 17.851-77.686 40.738-102.321 22.405-24.115 54.82-43.191 98.531-46.423m174.323 36c2.555-26.636-39.369-29.094-38.844-.946h14.211c-2.135-12.303 9.656-12.044 11.369-3.79 3.631 17.5-32.326 31.788-26.527 53.055 13.622-.042 27.428-.27 39.791.947 1.48-2.172 1.48-9.196 0-11.37h-24.633c7.006-10.56 23.09-21.806 24.633-37.895M72.243 100.332c-17.719 18.1-31.533 40.19-34.107 72.003-4.841 59.829 25.983 97.852 58.74 117.479 33.944 20.338 81.501 23.41 119.373 2.842 34.803-18.9 56.164-49.133 62.529-87.161 7.796-46.582-13.714-89.051-36.949-109.9-21.16-18.987-52.508-35.137-97.583-30.317-32.291 3.452-55.493 18.187-72.003 35.054" fill="url(#b)"/></svg>