<svg xmlns="http://www.w3.org/2000/svg" width="400" height="400" viewBox="0 0 400 400"><path d="M245.314 26.64c77.276 19.736 134.42 89.814 134.42 173.24 0 1.905-.04 3.8-.102 5.69l-120.256-17.106c-3.52-18.12-15.257-33.295-31.177-41.512l17.113-120.31zm-97.3 145.98c8.215-15.92 23.39-27.655 41.51-31.176L206.63 21.186c-1.89-.06-3.782-.1-5.687-.1-83.425 0-153.502 57.14-173.238 134.42l120.308 17.114zm25.668 80.19c-15.92-8.216-27.655-23.392-31.175-41.51L22.25 194.19c-.06 1.89-.1 3.785-.1 5.69 0 83.423 57.14 153.5 134.418 173.237l17.114-120.31zm80.19-25.67c-8.218 15.92-23.392 27.655-41.513 31.177l-17.108 120.26c1.89.06 3.785.1 5.688.1 83.427 0 153.505-57.143 173.238-134.42L253.872 227.14z" fill="#a12d15"/></svg>