<svg xmlns="http://www.w3.org/2000/svg" viewBox="0 0 233 233"><path d="M117.148 79.99c0 .245 0 .49.012.72l-35.69 51.847c-5.782-.263-11.584.75-17.085 3.017a39.685 39.685 0 0 0-6.83 3.606l-79.246-32.564-1.726 48.816 63.748 26.415c2.782 12.432 11.31 23.337 23.893 28.582 20.586 8.6 44.322-1.202 52.885-21.797 2.23-5.384 3.268-11.03 3.118-16.664l51.067-36.496c.413.013.84.025 1.252.025 30.56 0 55.4-24.915 55.4-55.51 0-30.6-24.84-55.49-55.4-55.49-30.548 0-55.4 24.89-55.4 55.49zm-8.564 105.062c-6.628 15.913-24.914 23.462-40.81 16.84-7.332-3.056-12.868-8.652-16.062-15.325l18.035 7.474c11.722 4.884 25.17-.675 30.043-12.393 4.888-11.73-.657-25.202-12.373-30.085l-18.643-7.725c7.194-2.73 15.372-2.83 23.013.35 7.703 3.206 13.68 9.24 16.847 16.953 3.168 7.712 3.155 16.225-.05 23.912m63.963-68.082c-20.344 0-36.908-16.588-36.908-36.98 0-20.376 16.563-36.97 36.907-36.97 20.357 0 36.92 16.594 36.92 36.97 0 20.392-16.563 36.98-36.92 36.98M144.89 79.933c0-15.34 12.42-27.782 27.72-27.782 15.31 0 27.73 12.443 27.73 27.783 0 15.342-12.42 27.773-27.73 27.773-15.3 0-27.72-12.43-27.72-27.773z" fill="#fff"/></svg>