<svg xmlns="http://www.w3.org/2000/svg" width="80.18" height="80.013" viewBox="0 0 21.214 21.17"><path d="M7.236 0C5.685 0 4.218.198 3.239.841l-.026.472h7.008l-.057-.469h.789L10.82.248C9.7.12 8.442 0 7.236 0zm5.344 1.042v1.83c.297-.694 2.525-.955 2.99.395v2.57h2.963V1.042zm-2.225.008l.576 4.493h1.512V1.05zM3.2 1.554L3.02 4.973h7.652l-.42-3.42zm9.45 1.751c-.106.592.011 2.355-.066 2.986-.077.63-.493.242-.527.639h3.776c-.046-.348-.347-.07-.435-.64-.088-.569-.023-2.42-.141-2.985-.477-1.095-2.433-.823-2.606 0zm7.914-.632c-.248.001-.491.004-.491.004v.738h.242v.84h-.578V2.676h-.968V5.07h2.314s.036-2.382 0-2.392a10.27 10.27 0 0 0-.519-.004zm-6.619.246a.945.945 0 1 1 0 1.89.945.945 0 0 1 0-1.89zm0 .225a.72.72 0 1 0 0 1.44.72.72 0 0 0 0-1.44zM3.006 5.213l-.043.795h1.403l.154.346h5.725l.045-.346h1.401l-.067-.277h-.86l-.064-.518zM6.06 6.595a1.488 1.488 0 0 0 1.762 1.448l1.033 1.14a1.15 1.15 0 0 1 .436-.434l-.838-.988c.363-.278.578-.708.583-1.166zm6.734.552v.3l-1.337-.024-1.444 1.189c.505.07.905.465.98.97l1.04-.84h.76v.84h-.935v.484h4.243v-.484h-.814V7.147zM9.856 8.723a1.028 1.028 0 1 0 0 2.055 1.028 1.028 0 0 0 0-2.055zm3.14 2.677h-1.858v1.298l-.88.471v1.198l.88-.487v1.347L8.26 16.751l1.043 1.606 5.673-2.812c.088-.051.172-.104.253-.158l-1.083-1.232c-.144.053-.213.03-.366.03a1.334 1.334 0 1 1 1.333-1.333c0 .168.01.244-.053.4.143.147.656.718 1.139 1.257 1.227-1.543.972-3.407.329-4.521zm-.027-1.148v.912l2.037-.912zm.817 1.597a.969.969 0 1 0 .327 1.88l1.578 1.795-.084.501L18.247 19l-.167.45.35.318 2.08-1.87-.393-.435-.601.317-2.823-2.956-.435.1s-1.354-1.523-1.572-1.747a.969.969 0 0 0-.9-1.327zm-5.944 5.056L5.49 18.446l-1.827.085-3.273 2.64h1.736l2.089-1.538s2.292.227 2.36.227c.066 0 2.267-1.326 2.267-1.326zm-5.42.685L0 19.539l.709.826 2.457-1.948zm16.619 1.76v.697l-.52.189v.897h2.693v-.85l-.496-.224v-.71z" fill-rule="evenodd"/></svg>