<svg xmlns="http://www.w3.org/2000/svg" width="64" height="64" viewBox="0 0 16.933333 16.933333"><circle cx="8.467" cy="8.467" r="8.21" fill="none" stroke="#fcfcfc" stroke-width=".513" stroke-linecap="square" stroke-linejoin="bevel"/><g transform="translate(4.775 4.513) scale(.23842)" fill="#fff"><path d="M3.95 1.687S20.89 3.74 33.5 15.985V11.29s-3.925.15-5.244-2.602c-1.32-2.75.257-4.216.257-4.216s-4.617-5.5-11.07-6.308c0 0-.86 4.034-5.792 3.41 0 0-2.71-.293-3.22-2.236 0 .005-2.86.883-4.47 2.35zm-8.56 18.26s16.45-.002 29.31 13.855l-1.707 1.815s-1.446-4.09-5.406-3.613c-2.522.307-3.94 1.467-4.728 4.22l-1.58.383s-1.21-7.15-9.35-6.653l.11-.77s1.59-4.013-.88-6.27c-2.48-2.255-5.648-.48-5.648-.48s-.68-2.157-.13-2.487zM-7.952 3.96l9.118.366S1.57 12.03-4.532 13.2l-3.42-9.24"/><path d="M12.482-8.466l-3.18 6.638s.726 2.27 3.74 2.254c2.43-.01 3.465-2.913 3.465-2.913l-4.025-5.98zM20.35-2.72l6.914-4.075L27.086.86S25.38-1.337 20.35-2.72zm9.185 7.266S27.88 9.46 33.93 10.153l2.452-6.193z"/><circle r="4.729" cy="15.326" cx="14.876"/><path d="M32.693 19.14C20.813 4.474 2.118 3.96 2.118 3.96s1.174 3.52-.66 6.893c-1.834 3.373-6.23 3.813-6.23 3.813-.296 2.127 0 3.08 0 3.08 17.595-.733 31.672 15.25 31.672 15.25 1.468-1.978 1.687-3.666 1.687-3.666s-1.3-1.413-.88-4.836c.48-3.906 4.986-5.355 4.986-5.355zm-17.817 2.674a6.49 6.49 0 0 1-6.49-6.49 6.49 6.49 0 0 1 6.49-6.49 6.49 6.49 0 0 1 6.49 6.49 6.487 6.487 0 0 1-6.49 6.49z"/><path d="M33.373 20.373s-5.43 1.71-3.423 8.853l8.966-1.063-5.365-7.79m-37.92 3.22s2.12-1.276 4.14 0c2.02 1.276.907 6.01.907 6.01l-7.646.52 2.6-6.53zm5.35 7.843l.606 10.197 8.085-4.35s-.037-2.84-2.9-4.566c-2.86-1.722-5.79-1.28-5.79-1.28zm21.116 5.24s-.662-3.43-3.74-3.23c-3.08.203-4.454 3.23-4.454 3.23l5.324 4.957 2.87-4.958z"/></g></svg>