<svg xmlns="http://www.w3.org/2000/svg" width="64" height="64" viewBox="0 0 64 64"><path d="M21.352 6.89s5.818-.5 9.522 5.397c1.715 3.03 1.55 7.925.024 9.807L43.516 38.26s5.21-.754 8.127 3.14c1.876 2.46 2.983 6.886 1.223 9.914l-5.093-6.64-6.823 5.217 5.22 6.78s-6.602.947-9.72-4.206c-3.12-5.154-.666-8.636-.666-8.636l-12.317-15.93s-7.213.694-10.19-3.695c-2.157-3.098-3.067-6.175-1.7-10.203l5.72 7.427 9.413-7.04-5.358-7.498z" fill="#fff"/><circle cx="32" cy="32" r="31.009" fill="none" stroke="#fff" stroke-width="1.983" stroke-linecap="square" stroke-linejoin="bevel"/></svg>