<svg xmlns="http://www.w3.org/2000/svg" width="64" height="64" viewBox="0 0 64 64"><path d="M50.604 32.997l-2.29-.733.457-4.127-2.01-3.48-3.3-.92V20.53l-2.662-2.746-3.663-.732-.918-2.84-4.582-2.29-5.772 1.19-5.5 6.414-10.354 6.23-2.383 6.737 1.284 4.354c3.664 1.373 4.858 4.123 4.858 4.123l2.538-1.045-3.33-6.225v-.004l5.79-10.936 1.142.605-5.47 10.327 2.864 5.354 11.584-12.354.943.882L17.603 40.62l2.486 3.373 3.218 1.89L35.52 32.857l.94.882-12.006 12.806 6.69 3.498 9.472-9.802.937.904-9.207 9.528.02.01 4.86 2.383s11.544-8.523 13.653-10.63c2.11-2.108 2.2-5.772 2.2-5.772L50.603 33z" fill="#fff"/><path d="M48.22 15.823l2.9-5.19 2.164 2.008zM16.678 15.97l-5.19-2.9 2.008-2.163zM16.39 47.547l-2.9 5.19-2.164-2.008zM48.265 47.536l5.19 2.9-2.008 2.163z" fill="#fff" fill-rule="evenodd"/><ellipse cx="32" cy="32" rx="30.999" ry="30.999" fill="none" stroke="#fff" stroke-width="2.001" stroke-linecap="square" stroke-linejoin="bevel"/></svg>