<svg xmlns="http://www.w3.org/2000/svg" width="64" height="64" viewBox="0 0 64 64"><path d="M15.12 26.042s2.387 2.068 1.91 7.792c-.478 5.724-2.544 16.22 3.498 23.22 6.043 6.994 16.698 6.517 21.47 3.496 4.778-3.02 10.664-9.383 9.87-22.265-.24-4.77-1.276-5.566-.795-9.62 0 0-2.385 1.512-2.307 5.09.078 3.575-1.033 8.107-5.092 7.867-4.05-.235-4.767-4.45-3.656-7.79 1.114-3.337 2.306-7.393-.397-13.756-2.715-6.36-5.255-8.824-11.7-13.196 0 0 5.245 5.405-.32 15.823-2.938 5.248-5.323 9.57-5.164 12.06 0 0-2.227.27-3.1-4.42-.877-4.688-4.215-4.296-4.215-4.296z" fill="#fff"/><ellipse cx="32" cy="32" rx="31" ry="31" fill="none" stroke="#fff" stroke-width="2" stroke-linecap="square" stroke-linejoin="bevel"/></svg>