<svg xmlns="http://www.w3.org/2000/svg" width="64" height="64" viewBox="0 0 64 64"><path d="M-726.167 67.496s-5.333 4.834-8.5 16.5c-3.167 11.668-14.5 32.334-23 35 0 0-2.5 0-3 .668-.5.666-3.167 6.666 7.667 6.166s30.367-13.152 40.005-27.332c8.958-13.182 21.83-20.834 25.33-21 3.5-.168 3.5-4.334 3.5-5.5 0-1.168-.5-9.996-.5-9.996s-35.002 2.994-41.502 5.494z" fill="#666"/><g fill="#666"><path d="M-717.405 36.746c-.34 3.286.253 4.785.253 4.785l40.413-10.49c1.74-2.6 4.27-8.06 5.98-11.93l-46.64 17.64zM-667.82 7.68c-10.313 3.95-45.173 17.305-47.893 18.432-1.865 2.348-1.316 7.422-1.316 7.422l47.92-18.255.21-.49c1.33-2.4 1.25-5.5 1.09-7.12z"/><path d="M-696.233 45.67c9.926-3.273 14.78-8 16.95-10.872l-37.558 9.444v11.6h-3.39c-.38-30.52 1.31-30.875 1.31-30.875l52.344-20.47c2.435-4.96 4.345-15.508 2.92-14.155-1.69 1.606-15.98 9.46-39.1 19.276-23.12 9.817-25.75 13.564-26.316 14.1-.564.536 0 7.14 0 7.14C-727.18 41.03-726.43 62-726.43 62l39.29-4.373c-3.855-5.086-9.963-6.87-12.783-7.584-2.82-.714-4.24-.962-3.385-1.874.648-.7 7.075-2.5 7.075-2.5z"/></g><g fill="#fff" stroke-width="1.054"><path d="M27.252 35.745s-1.87 1.692-2.978 5.78c-1.108 4.086-5.078 11.323-8.055 12.257 0 0-.876 0-1.05.233-.176.234-1.11 2.335 2.685 2.158 3.793-.17 10.636-4.604 14.01-9.568 3.137-4.613 7.646-7.29 8.87-7.357 1.226-.057 1.226-1.518 1.226-1.927 0-.407-.176-3.492-.176-3.492s-12.256 1.05-14.532 1.927zm3.068-10.77c-.12 1.153.09 1.677.09 1.677L44.56 22.98c.607-.912 1.494-2.82 2.092-4.177l-16.334 6.18zm17.368-10.18c-3.614 1.385-15.82 6.063-16.776 6.456-.653.824-.46 2.6-.46 2.6l16.782-6.39.076-.172c.465-.84.436-1.924.39-2.492z"/><path d="M37.735 28.102c3.474-1.146 5.176-2.8 5.936-3.808L30.518 27.6v4.063h-1.183c-.133-10.69.46-10.815.46-10.815l18.33-7.168c.855-1.737 1.525-5.433 1.026-4.96-.594.564-5.597 3.314-13.697 6.75-8.098 3.44-9.017 4.752-9.217 4.94-.196.185 0 2.5 0 2.5.658 3.562.923 10.905.923 10.905l13.758-1.53c-1.35-1.782-3.49-2.405-4.477-2.658-.986-.25-1.48-.335-1.176-.655.228-.237 2.478-.87 2.478-.87z"/></g><circle cx="32" cy="32" r="31" fill="none" stroke="#fff" stroke-width="2" stroke-linecap="square" stroke-linejoin="bevel"/></svg>