<svg xmlns="http://www.w3.org/2000/svg" width="64" height="64" viewBox="0 0 64 64"><path d="M39.712 34.564l-11.453-9.88-2.632 2.247L37.82 37.337M48.27 18.95l.447-3.17 1.72-.644 1.035-2.056-.048-.038-4.807-4.1-.044-.037-1.87 1.346-.363 1.804-3.057.944L29.766 23.32l10.972 9.353m-5.925 4.573l-8.627-7.355-1.258 2.5 7.62 6.495 2.265-1.64-8.627-7.354m-2.232 4.628l6.647 5.664-4.285 3.192-5.114-4.357m-1.384 1.945l4.87 4.15-10.32 12.102-5.01-4.27" fill="#fff"/><circle cx="32" cy="32" r="31" fill="none" stroke="#fff" stroke-width="2" stroke-linecap="square" stroke-linejoin="bevel"/></svg>