<svg xmlns="http://www.w3.org/2000/svg" width="64" height="64" viewBox="0 0 64 64"><path d="M49.788 48.796c-1.835-2.448-2.252-1.93-11.914-14.315l2.476-1.45-1.03-1.756-2.704 1.585c-1.556-2.01-3.33-4.32-5.352-6.984L14.748 10.178s-.687 12.37 14.43 24.737l1.235 1.053.302.36-3.097 1.82 1.03 1.752 3.393-1.99 12.117 14.457s1.01 1.74 1.284 3.573c0 0 3.39-1.193 6.872-3.576 0 0-1.97-2.837-2.52-3.57z" fill="#fff"/><ellipse cx="32" cy="32" rx="31" ry="31" fill="none" stroke="#fff" stroke-width="2" stroke-linecap="square" stroke-linejoin="bevel"/></svg>